<?xml version="1.0" encoding="UTF-8"?>
<svg xmlns="http://www.w3.org/2000/svg" viewBox="0 0 1923.07 183.78">
  <defs>
    <style>
      .cls-1 {
        fill: #b3b3b3;
        stroke: #b3b3b3;
      }

      .cls-1, .cls-2, .cls-3 {
        stroke-miterlimit: 10;
      }

      .cls-2 {
        fill: #e6e6e6;
        stroke: #e6e6e6;
      }

      .cls-3 {
        fill: #ccc;
        stroke: #ccc;
      }
    </style>
  </defs>
  <g id="darker">
    <path class="cls-1" d="m3.07,138.39h0l29.57-5.14,18,4.35,17.36.99,30.6-7.74c5.73-3.49,14.04-4.86,21.85-3.6l18.26-3.5,54-5.93h48.94c2.08,0,4.14.22,6.09.64l43.41,9.4c3.72.81,7.74.93,11.58.37l35.72-5.26c1.83-.27,3.71-.39,5.6-.35l62.73,1.14,69.93,4.53c2.22.14,4.38.53,6.38,1.15l41.34,12.72h67.5l11.57-5.34,47.83-9.58c4.89-.98,10.1-1.17,15.14-.55l39.24,4.8,42.24-12.03c6.39-1.82,13.55-2.36,20.47-1.53l26.13,3.11,19.02-.95c14.94-6.99,21.38-13.31,38.41-17.98l20.5-5.61c9.03-2.66,14.86-.49,23.13.94l34.53,2.85c2.21.36,4.54.36,6.76.02,14.32-2.22,15.81-.49,31.11-3.81l77.14-16.61,31.5-6.01c3.18-1.29,16.04-2.68,21.09-2.22l75.79-4.54c3.09-.19,6.07-.8,8.72-1.79l40.09-13.6c7.25-3.86,14.52-6.77,20.25-8.6l24.35-8.32,17.82-19.93c2.22-2.49,5.5-4.56,9.48-6l19.66-7.12c4.36-1.58,9.76-1.61,14.17-.08l23.73,8.21,21.21,17.8,11.57,10.68,27-1.19,26.65-4.82c3.87-.7,8.06-.28,11.37,1.15l14.05,6.05,13.5,11.87,13.73-3.38c5.14-1.27,10.9-1.19,15.96.21l5.03,1.39,3.86,7.71,23.14,12.46,20.1-6.62c4.21-1.39,9.35-1.15,13.17.62l13.02,6.01,19.29,11.27,30.86,7.12,15.43,9.49,9.64,8.31,23.14,2.37,239.07-3.62v70.07l-1919.82-.14.32-36.25Z"/>
  </g>
  <g id="Layer_4" data-name="Layer 4">
    <path class="cls-2" d="m442.79,174.46c-13.61-.61-33.64-.38-42.75-.18-.64.11-1.78.17-3.54.18h46.29Z"/>
    <path class="cls-2" d="m906.07,161.98c-10.39-4.4-33.86-.79-33.86-.79l-64.29,4.75s-43.71-4.75-48.86-9.49c-5.14-4.75-42.58-8.27-42.58-8.27,0,0-37.14,13.01-78.28,8.27,0,0-57.23,2.47-81.43,9.05-22.93,6.24-24.67-.73-42.2,1.32-9.91,1.15-24.54,1.74-37.8,3.08-9.17.93-12.7,3.93-24.29,4.57h508.15c-9.29-7.3-45.09-8.47-54.57-12.48Z"/>
    <path class="cls-2" d="m395.81,174.46h.69c1.76,0,2.9-.07,3.54-.18-3.97.09-5.86.17-4.23.18Z"/>
    <path class="cls-2" d="m400.04,174.28c6.7-1.16-63.11-5.31-63.11-5.31,0,0-84.8,10.69-129.43-5.28-7.92-2.84-34.38-4.84-59.92-8.07-12.08.82-63.31,7.49-67.73,7.06l-38.2,4.83s-8.3,2.7-20.63,6.94h374.79c-1.63,0,.26-.09,4.23-.18Z"/>
    <path class="cls-2" d="m452.5,174.46h-9.71c3.8.17,6.98.15,9.71,0Z"/>
    <path class="cls-2" d="m396.5,174.46h-.69c.19,0,.41,0,.69,0Z"/>
    <path class="cls-3" d="m1103.34,167.28c-2.47-.17-4.96-.06-7.36.32l-42.92,6.86h153.2l-102.92-7.18Z"/>
    <path class="cls-3" d="m1920.65,174.58l-.69-74.75.69-30.23c-1.53-.5-2.88-1.19-3.98-2.01l-18.51-17.31c-.44-.32-.83-.67-1.19-1.03l-5.29-5.42c-4.26-4.37-13.87-5.36-20.22-2.08l-34.54,17.85c-2.52,1.3-32.78,6.76-34.7,8.4l-25.36,17.91c-13.1,1.86-22.27,2.89-36.6,4.87l-17.04,2.72-51.12-3.67c-12.38-3.33-27.2-11.86-36.75-5.98l-54.64,20.28-72.03,35.63c-4.6,2.28-9.9,3.96-15.58,4.95l-111.44,19.47-90.62,1.43-74.47,8.84h82.22l621.85.14Z"/>
    <path class="cls-3" d="m127.15,162.38l-70.01-28.42c-8.28-2.35-11.94-5.4-19.29-6l-37.35-1.98.32,48.46,139.82.02-13.5-12.09Z"/>
    <path class="cls-3" d="m800.54,173.68c-4.48.11-8.96-.16-13.32-.8l-111.72-2.55c-8.16-1.47-16.95.15-22.46,4.14h170.34l-22.84-.79Z"/>
    <path class="cls-2" d="m1623.07,167.52h-51.43l-69.05-2.81c-1.49-.06-2.98-.01-4.45.14l-93.64,9.62h408.86l-141.43-10.11-48.86,3.16Z"/>
    <path class="cls-2" d="m1266.99,161.23c-1.18-.2-11.28-1.74-16.42-2.52-1.98-.3-4.01-.41-6.04-.34l-49.18,1.85c-39.89,4.56-50.34,8.22-92.86,12.57-2.07.21-3.91.86-5.6,1.67h239.36l-69.27-13.23Z"/>
  </g>
</svg>