<?xml version="1.0" encoding="UTF-8"?>
<svg xmlns="http://www.w3.org/2000/svg" viewBox="0 0 53.24 168.32">
  <defs>
    <style>
      .cls-1 {
        fill-rule: evenodd;
      }

      .cls-1, .cls-2 {
        fill: #633816;
      }

      .cls-3 {
        fill: none;
        stroke: #8d5828;
        stroke-miterlimit: 10;
        stroke-width: 5px;
      }

      .cls-4 {
        fill: #8d5828;
      }

      .cls-5 {
        fill: #fdc381;
      }

      .cls-6 {
        fill: #999;
      }

      .cls-7 {
        fill: #ccc;
      }

      .cls-8 {
        fill: #f4b16b;
      }
    </style>
  </defs>
  <g id="Layer_1" data-name="Layer 1">
    <line class="cls-3" x1="48.69" y1="5.94" x2="51.89" y2="7.99"/>
    <line class="cls-3" x1="40.6" y1="162.28" x2="44.61" y2="160.22"/>
    <polygon class="cls-4" points="45.62 162.28 14.39 159.39 28.79 3.74 53.16 6 45.62 162.28"/>
    <polygon class="cls-8" points="41.73 164.4 10.96 162.01 25.79 1.65 50.16 3.91 41.73 164.4"/>
  </g>
  <g id="Layer_3" data-name="Layer 3">
    <path class="cls-6" d="m6.05,70.44L.99,92.73c-.2.88.43,1.98,1.45,1.9,12.48-.94,24.92-.54,37.35.85.85.1,1.44-.77,1.5-1.5,1.73-19.78,3.46-39.55,5.18-59.33.05-.6-.5-1.34-1.1-1.45-5.03-.91-10.21-2.07-15.35-1.64-.88.07-1.41.63-1.5,1.5-.67,6.31-.02,12.68-.68,18.98-.06.58.51,1.36,1.1,1.45,2.89.41,5.77.82,8.66,1.23.81.11,1.6-.2,1.85-1.05.2-.7-.25-1.73-1.05-1.85-2.89-.41-5.77-.82-8.66-1.23l1.1,1.45c.67-6.31.02-12.68.68-18.98l-1.5,1.5c4.89-.41,9.77.67,14.55,1.54l-1.1-1.45c-1.73,19.78-3.46,39.55-5.18,59.33l1.5-1.5c-12.43-1.39-24.87-1.79-37.35-.85l1.45,1.9c1.69-7.43,3.37-14.86,5.06-22.29.43-1.88-2.46-2.68-2.89-.8h0Z"/>
    <path class="cls-6" d="m33.17,41.11c1.19-.13,2.59-.34,3.71.14,1.01.43,1.23,1.21,1.27,2.27.11,2.84-.28,5.65-1.1,8.36-.56,1.85,2.34,2.64,2.89.8.51-1.7.85-3.44,1.05-5.21s.29-3.5.04-5.2c-.24-1.58-1.19-2.92-2.64-3.62-1.65-.8-3.44-.73-5.22-.55-.81.09-1.5.63-1.5,1.5,0,.74.69,1.59,1.5,1.5h0Z"/>
    <path class="cls-7" d="m5.1,71.26L.04,93.55c-.2.88.43,1.98,1.45,1.9,12.48-.94,24.92-.54,37.35.85.85.1,1.44-.77,1.5-1.5,1.73-19.78,3.46-39.55,5.18-59.33.05-.6-.5-1.34-1.1-1.45-5.03-.91-10.21-2.07-15.35-1.64-.88.07-1.41.63-1.5,1.5-.67,6.31-.02,12.68-.68,18.98-.06.58.51,1.36,1.1,1.45,2.89.41,5.77.82,8.66,1.23.81.11,1.6-.2,1.85-1.05.2-.7-.25-1.73-1.05-1.85-2.89-.41-5.77-.82-8.66-1.23l1.1,1.45c.67-6.31.02-12.68.68-18.98l-1.5,1.5c4.89-.41,9.77.67,14.55,1.54l-1.1-1.45c-1.73,19.78-3.46,39.55-5.18,59.33l1.5-1.5c-12.43-1.39-24.87-1.79-37.35-.85l1.45,1.9c1.69-7.43,3.37-14.86,5.06-22.29.43-1.88-2.46-2.68-2.89-.8h0Z"/>
    <path class="cls-7" d="m32.21,41.93c1.19-.13,2.59-.34,3.71.14,1.01.43,1.23,1.21,1.27,2.27.11,2.84-.28,5.65-1.1,8.36-.56,1.85,2.34,2.64,2.89.8.51-1.7.85-3.44,1.05-5.21s.29-3.5.04-5.2c-.24-1.58-1.19-2.92-2.64-3.62-1.65-.8-3.44-.73-5.22-.55-.81.09-1.5.63-1.5,1.5,0,.74.69,1.59,1.5,1.5h0Z"/>
  </g>
  <g id="Layer_2" data-name="Layer 2">
    <line class="cls-3" x1="5.26" y1="3.98" x2="9.06" y2="2.28"/>
    <line class="cls-3" x1="33.98" y1="165.97" x2="38.65" y2="164.31"/>
    <polygon class="cls-4" points="39.39 166.55 8.03 166.55 8.03 0 32.5 0 39.39 166.55"/>
    <polygon class="cls-5" points="34.83 168.31 4.55 167.39 4.11 1.65 28.58 1.65 34.83 168.31"/>
  </g>
  <g id="Layer_4" data-name="Layer 4">
    <rect class="cls-2" x="4.12" y="91.36" width="27.87" height="3.28" transform="translate(3.98 -.69) rotate(2.44)"/>
    <polygon class="cls-1" points="32.49 98.63 4.52 97.3 4.2 94.13 32.63 95.34 32.49 98.63"/>
    <path class="cls-6" d="m1.48,95.63c12.78.01,25.56.81,38.31,1.62,1.93.12,1.92-2.88,0-3-12.75-.8-25.53-1.6-38.31-1.62-1.93,0-1.93,3,0,3h0Z"/>
    <path class="cls-7" d="m1.48,95.13c12.49,0,24.99.55,37.46,1.33,1.93.12,1.92-2.88,0-3-12.46-.78-24.97-1.33-37.46-1.33-1.93,0-1.93,3,0,3h0Z"/>
  </g>
</svg>